<?xml version="1.0" standalone="no"?>
<!DOCTYPE svg PUBLIC "-//W3C//DTD SVG 20010904//EN"
 "http://www.w3.org/TR/2001/REC-SVG-20010904/DTD/svg10.dtd">
<svg version="1.0" xmlns="http://www.w3.org/2000/svg"
 width="350.000000pt" height="350.000000pt" viewBox="0 0 350.000000 350.000000"
 preserveAspectRatio="xMidYMid meet">
<metadata>
Created by potrace 1.11, written by Peter Selinger 2001-2013
</metadata>
<g transform="translate(0.000000,350.000000) scale(0.100000,-0.100000)"
fill="#000000" stroke="none">
<path d="M1660 3490 c-7 -5 -19 -6 -26 -3 -7 3 -19 1 -25 -3 -7 -4 -27 -8 -44
-10 -18 -1 -41 -6 -51 -12 -10 -5 -25 -7 -31 -5 -7 3 -13 0 -13 -6 0 -6 -6
-10 -12 -8 -7 1 -12 -4 -10 -11 1 -8 -2 -11 -8 -7 -5 3 -10 2 -10 -4 0 -6 -7
-8 -15 -5 -8 3 -35 -6 -60 -21 -40 -23 -44 -29 -33 -42 12 -15 11 -15 -10 -4
-20 11 -27 10 -40 -3 -10 -8 -27 -24 -40 -36 -12 -11 -20 -25 -17 -30 3 -5 -9
-4 -27 1 -65 21 -75 22 -58 9 13 -10 13 -11 -2 -6 -10 3 -18 1 -18 -4 0 -6 -5
-10 -12 -10 -9 0 -9 3 0 12 17 17 15 33 -3 18 -18 -15 -45 -6 -45 15 0 18 -11
19 -29 3 -11 -11 -13 -10 -8 5 7 19 -3 23 -20 6 -8 -8 -14 -5 -23 11 -9 16
-18 21 -36 17 -14 -2 -26 -1 -29 3 -9 14 -115 5 -125 -10 -5 -8 -10 -10 -10
-4 0 6 -7 11 -15 11 -9 0 -14 -6 -11 -12 2 -6 -2 -12 -10 -12 -7 0 -11 4 -8 9
8 13 -13 9 -28 -5 -7 -8 -18 -12 -25 -10 -6 2 -14 -5 -18 -16 -6 -21 -25 -29
-25 -11 0 6 5 10 12 10 6 0 9 2 7 5 -3 2 -15 2 -28 -2 -17 -4 -19 -8 -9 -15 9
-6 6 -8 -12 -7 -49 4 -91 -1 -86 -10 4 -5 -4 -7 -16 -3 -14 3 -19 2 -14 -6 4
-7 3 -12 -2 -12 -5 0 -26 -12 -47 -26 -21 -14 -47 -28 -58 -30 -11 -2 -31 -11
-46 -20 -30 -20 -111 -99 -111 -109 0 -4 -11 -20 -25 -37 -14 -16 -25 -38 -25
-49 0 -13 -4 -18 -12 -13 -7 4 -10 4 -6 0 7 -8 3 -14 -45 -67 -18 -19 -27 -38
-24 -50 3 -10 2 -19 -2 -19 -4 0 -8 -10 -9 -22 -4 -38 -7 -52 -16 -66 -5 -8 1
-20 16 -33 21 -19 22 -19 1 -10 -16 8 -22 7 -27 -5 -4 -10 -2 -13 7 -9 6 4 1
-2 -12 -13 -14 -11 -21 -24 -17 -31 4 -6 4 -11 -1 -10 -20 3 -27 -2 -13 -11
10 -6 11 -10 3 -10 -7 0 -13 -5 -13 -11 0 -5 4 -7 10 -4 5 3 10 1 10 -4 0 -6
-5 -11 -11 -11 -6 0 -7 -6 -2 -12 4 -7 6 -24 5 -38 -2 -14 2 -39 9 -55 6 -17
13 -39 14 -49 1 -10 10 -25 20 -32 11 -8 20 -22 21 -32 2 -9 16 -27 31 -40 15
-13 45 -39 66 -58 21 -20 42 -32 49 -28 7 4 8 3 4 -4 -3 -6 3 -16 15 -22 17
-10 20 -9 13 2 -4 7 2 4 14 -6 12 -11 22 -16 22 -12 0 4 8 2 18 -3 13 -7 23
-6 32 2 10 10 11 9 5 -3 -5 -8 -5 -12 -1 -8 5 4 19 3 33 -3 16 -6 22 -6 18 1
-3 6 -1 10 4 10 6 0 11 -4 11 -10 0 -6 9 -6 25 0 14 5 25 7 25 4 0 -4 6 -1 14
5 7 6 21 9 30 5 9 -3 16 -1 16 6 0 6 -6 8 -12 4 -7 -4 -3 3 9 15 25 24 42 29
23 6 -7 -9 -10 -19 -6 -22 4 -4 11 -2 15 5 4 7 12 12 17 11 5 -2 33 9 61 24
29 15 55 26 59 25 3 -2 10 5 15 15 6 9 16 17 22 17 7 0 42 30 77 66 36 37 60
64 53 60 -6 -3 -14 -2 -17 3 -4 5 7 7 25 4 23 -3 36 1 50 16 10 11 19 25 19
31 0 5 6 9 13 7 6 -1 11 3 10 10 -2 7 3 10 10 8 7 -3 13 -29 14 -68 3 -82 4
-89 19 -83 12 5 13 -18 1 -30 -4 -4 0 -18 9 -32 9 -13 12 -22 6 -18 -5 3 -9
-5 -9 -19 0 -14 2 -23 6 -21 3 2 7 -23 8 -57 1 -51 5 -63 24 -78 13 -10 20
-21 16 -25 -4 -4 -7 -2 -7 4 0 7 -5 12 -11 12 -5 0 -7 -5 -4 -10 4 -6 8 -25
10 -42 5 -33 11 -45 21 -36 3 4 1 15 -5 27 -8 14 -8 22 1 27 6 4 8 3 4 -4 -3
-6 0 -17 7 -24 12 -11 12 -16 0 -35 -14 -20 -13 -23 1 -29 9 -3 16 -10 16 -16
0 -5 -4 -6 -10 -3 -6 3 -7 -1 -4 -9 3 -9 10 -16 16 -16 5 0 6 -5 2 -12 -4 -7
-3 -8 4 -4 7 4 13 2 13 -3 3 -20 5 -26 14 -43 12 -20 46 -27 52 -10 3 6 -1 10
-9 9 -7 -2 -10 -2 -5 0 4 3 4 9 1 14 -3 6 -11 5 -20 -2 -10 -8 -14 -8 -14 0 0
6 5 11 10 11 6 0 10 5 10 11 0 5 -5 7 -12 3 -7 -5 -9 -2 -5 8 4 11 -1 18 -15
21 -13 4 -19 11 -15 21 4 9 -1 20 -11 25 -11 7 -12 11 -4 11 7 0 10 5 6 12 -4
7 -3 8 5 4 6 -4 9 -11 6 -16 -3 -4 2 -10 10 -13 8 -4 23 -24 34 -46 12 -22 41
-56 65 -77 44 -37 79 -90 54 -82 -7 3 -18 -2 -24 -10 -9 -12 -13 -12 -19 -2
-5 8 -4 11 3 6 22 -13 18 20 -6 52 -27 35 -45 42 -36 15 4 -11 2 -14 -3 -8 -4
6 -15 11 -23 13 -9 1 -5 -6 9 -18 13 -12 31 -18 40 -15 14 4 14 4 0 -8 -15
-11 -13 -16 16 -44 30 -30 34 -31 46 -16 12 15 12 16 -6 9 -14 -5 -17 -4 -9 4
6 6 18 8 28 4 15 -6 15 -7 -1 -19 -20 -15 -19 -17 21 -30 52 -18 55 -39 14
-82 -20 -21 -44 -55 -52 -75 -9 -20 -21 -40 -27 -44 -6 -3 -19 -23 -28 -43
-18 -38 -40 -52 -37 -23 0 9 -7 18 -18 20 -11 2 -16 0 -12 -6 8 -14 -38 -6
-74 13 -15 8 -35 26 -45 41 -9 15 -11 23 -4 19 9 -6 10 -3 4 11 -4 10 -9 31
-9 46 -1 15 -6 31 -10 35 -5 5 -6 2 -1 -6 6 -10 4 -12 -4 -7 -7 5 -9 12 -3 19
17 23 20 56 5 76 -9 14 -13 41 -11 78 1 32 -1 64 -5 71 -10 15 -37 16 -37 1 0
-6 -9 -8 -20 -4 -11 3 -20 3 -20 -2 0 -4 -16 -9 -36 -10 -20 -1 -53 -9 -73
-18 -115 -53 -166 -83 -193 -115 -16 -19 -42 -49 -57 -66 -24 -27 -29 -43 -35
-119 -7 -80 -5 -91 13 -116 12 -16 21 -31 21 -34 0 -20 86 -115 122 -135 144
-79 173 -92 239 -105 76 -14 90 -24 83 -61 -3 -16 2 -24 17 -29 13 -4 18 -12
15 -22 -8 -19 12 -45 27 -36 6 3 7 1 3 -6 -4 -6 -12 -9 -17 -6 -5 4 -9 -1 -9
-10 0 -9 4 -14 9 -11 5 4 7 -4 3 -16 -4 -16 -2 -19 8 -13 9 5 11 4 6 -4 -4 -6
-2 -19 6 -28 9 -12 9 -15 0 -9 -9 5 -11 1 -8 -16 3 -13 5 -25 6 -28 2 -3 2 -8
1 -12 0 -5 4 -8 10 -8 6 0 8 10 5 23 -6 22 -6 22 6 -1 9 -19 9 -25 -3 -32 -12
-8 -12 -13 -1 -30 7 -11 10 -25 7 -30 -4 -6 -2 -10 4 -10 5 0 11 5 13 12 3 7
7 5 11 -6 4 -9 3 -15 -2 -11 -20 12 -21 -16 -2 -40 10 -14 22 -21 25 -16 3 5
1 11 -6 13 -7 3 -5 7 6 11 9 4 15 3 11 -2 -3 -5 -1 -12 5 -16 5 -3 10 -12 10
-18 0 -7 -4 -6 -10 3 -5 8 -10 10 -10 4 0 -12 21 -34 33 -34 4 0 5 5 2 10 -3
6 -1 10 4 10 6 0 10 -10 8 -22 -1 -16 8 -26 41 -42 53 -26 64 -53 31 -77 -13
-10 -31 -24 -40 -32 -8 -7 -21 -11 -27 -9 -7 2 -16 -8 -21 -21 -6 -14 -15 -28
-21 -32 -5 -3 -7 -11 -4 -17 5 -7 2 -8 -5 -4 -9 6 -8 13 5 29 10 12 -6 -1 -34
-29 -38 -35 -51 -55 -46 -67 3 -9 10 -14 15 -11 5 3 4 -6 -2 -20 -7 -14 -16
-23 -20 -20 -5 3 -9 -2 -9 -11 0 -11 5 -15 14 -12 10 4 13 1 9 -8 -3 -8 -10
-12 -16 -8 -7 4 -8 0 -2 -13 4 -10 8 -27 9 -36 0 -21 12 -24 19 -5 3 7 6 5 6
-5 1 -10 -3 -18 -8 -18 -5 0 -4 -11 2 -25 7 -14 16 -25 20 -25 5 0 6 -4 2 -9
-6 -10 46 -51 65 -51 6 0 9 -4 6 -9 -9 -15 24 -22 46 -10 15 8 19 8 14 0 -4
-6 -4 -11 1 -12 4 0 17 -3 28 -6 11 -3 57 -6 102 -7 68 -1 85 3 104 19 18 15
20 16 10 3 -19 -25 2 -22 25 3 17 19 19 19 30 4 9 -12 19 -15 36 -9 21 7 48
11 90 13 9 1 23 8 31 16 8 8 24 12 36 10 12 -2 21 0 21 6 0 5 7 9 15 9 8 0 15
7 15 15 0 8 -6 15 -14 15 -8 0 -22 3 -32 7 -11 4 -15 3 -11 -4 5 -7 0 -9 -11
-6 -11 2 -26 -3 -35 -11 -9 -9 -17 -12 -19 -5 -2 5 -11 7 -21 4 -9 -4 -15 -10
-14 -14 2 -3 -4 -14 -14 -23 -17 -16 -18 -16 -16 2 1 10 5 16 10 13 4 -3 7 3
5 12 -3 17 24 31 108 54 53 14 85 40 135 108 49 66 69 111 69 158 0 19 4 35 9
35 6 0 8 10 5 23 -12 50 -10 52 36 57 44 5 45 5 47 -24 0 -19 -2 -24 -7 -15
-5 7 -6 18 -2 24 3 5 -2 4 -11 -4 -9 -7 -17 -19 -17 -25 0 -6 5 -4 10 4 7 12
9 10 7 -7 -1 -14 -5 -19 -12 -14 -5 4 -19 11 -29 15 -15 5 -17 4 -7 -7 9 -11
8 -17 -4 -27 -13 -11 -12 -15 10 -36 25 -23 34 -41 14 -28 -6 3 -3 -5 6 -20
16 -24 16 -26 1 -32 -10 -4 -15 -12 -12 -19 2 -7 -6 -23 -18 -36 -12 -13 -25
-32 -28 -41 -4 -9 -23 -24 -42 -33 -20 -10 -33 -22 -29 -28 4 -6 0 -8 -11 -4
-11 5 -15 3 -10 -5 5 -8 2 -9 -9 -5 -13 5 -17 1 -18 -16 0 -21 -1 -21 -9 -2
-5 11 -9 14 -9 7 -1 -7 -5 -11 -10 -7 -5 3 -12 1 -16 -5 -3 -5 1 -10 10 -10 8
0 18 -6 21 -14 5 -12 11 -13 30 -4 13 6 24 15 24 20 0 5 5 6 10 3 6 -3 10 -1
10 4 0 6 6 11 13 11 6 0 18 4 26 9 12 8 12 12 2 25 -9 11 -10 16 -2 16 6 0 11
-4 11 -10 0 -19 15 -10 36 23 11 17 22 37 24 42 2 6 10 16 17 23 7 8 11 17 8
22 -10 17 13 20 41 5 16 -8 25 -15 19 -15 -5 0 1 -7 13 -16 12 -8 27 -12 32
-9 6 3 10 0 10 -8 0 -8 7 -18 16 -21 8 -3 12 -2 9 4 -3 6 1 7 9 4 9 -3 14 -9
11 -13 -2 -4 9 -15 24 -24 26 -15 29 -15 49 4 26 24 27 29 6 29 -9 0 -12 -5
-8 -12 4 -6 3 -8 -4 -4 -5 3 -13 0 -16 -6 -2 -7 -4 -2 -3 12 2 22 -3 25 -33
29 -29 3 -32 5 -15 11 19 8 19 9 -2 9 -12 1 -24 -5 -27 -11 -3 -7 -3 -3 0 10
5 19 -5 28 -21 20 -2 -2 -12 7 -20 20 -9 12 -23 22 -32 22 -9 0 -13 3 -10 7 4
3 -2 12 -13 20 -12 8 -17 20 -13 30 5 12 3 14 -7 8 -9 -5 -11 -4 -6 3 4 7 2
12 -5 12 -7 0 -10 2 -7 5 8 8 70 -32 141 -91 34 -27 81 -61 104 -74 23 -13 40
-27 37 -32 -3 -4 -8 -7 -12 -5 -4 2 -15 -5 -25 -15 -19 -20 -22 -17 52 -44 8
-2 18 1 23 8 6 10 8 10 8 1 0 -7 4 -13 10 -13 5 0 7 6 4 14 -3 8 0 17 6 21 6
3 10 3 9 -2 -4 -26 3 -34 29 -31 15 1 30 7 34 13 5 6 8 5 8 -2 0 -7 5 -13 11
-13 5 0 8 4 5 8 -2 4 5 9 17 9 17 2 19 0 7 -7 -12 -8 -9 -10 12 -10 22 0 26 4
22 18 -5 15 -4 16 8 1 8 -11 29 -16 57 -16 38 0 42 2 28 12 -23 16 -21 20 8
23 15 1 28 -4 31 -13 7 -18 24 -10 24 11 0 8 -5 12 -10 9 -6 -3 -10 -1 -10 5
0 7 6 10 14 7 7 -3 18 -1 23 4 6 6 10 4 10 -5 0 -8 -4 -13 -9 -10 -4 3 -8 -2
-8 -11 0 -13 8 -11 40 12 42 29 52 46 23 37 -15 -5 -15 -4 -3 4 8 6 18 8 22 6
5 -3 23 8 40 25 27 27 29 32 18 48 -12 15 -12 16 0 6 19 -17 28 -16 39 5 8 14
5 18 -11 19 -26 2 -26 1 -20 50 4 39 5 41 28 33 17 -7 24 -6 24 3 0 17 -38 72
-50 72 -5 0 -10 3 -10 7 0 15 -88 88 -122 103 -20 8 -61 15 -92 16 -40 2 -54
5 -46 13 15 15 13 21 -16 55 l-26 31 43 48 c24 26 49 52 55 57 21 18 67 168
71 235 3 36 9 69 14 74 12 13 39 16 39 5 0 -5 5 -9 11 -9 5 0 8 4 4 9 -3 6 15
-2 40 -16 48 -26 100 -33 166 -20 31 6 39 14 66 70 16 34 38 90 47 124 l17 62
-25 48 c-14 27 -30 72 -36 101 -5 28 -17 67 -27 84 -9 18 -16 39 -14 47 1 7
-2 10 -7 7 -5 -3 -17 12 -27 32 -10 20 -20 31 -22 24 -3 -7 1 -20 9 -29 12
-15 11 -15 -9 -3 -12 8 -19 20 -15 28 3 10 1 13 -6 8 -6 -3 -13 -3 -15 1 -3 5
8 9 24 9 20 1 30 -4 34 -17 4 -11 11 -17 16 -14 5 4 6 -2 2 -12 -3 -10 -3 -15
2 -11 4 4 13 0 20 -9 10 -14 15 -13 44 13 67 60 81 76 76 85 -4 5 -1 9 5 9 8
0 10 9 6 24 -3 14 -2 28 4 31 6 4 7 -1 3 -12 -5 -16 -4 -17 11 -2 15 14 26 44
28 77 1 6 5 12 10 12 4 0 7 6 6 13 -2 6 2 11 9 10 9 -2 10 4 3 22 -6 16 -6 27
1 31 7 4 -1 14 -18 25 -15 10 -23 19 -16 19 6 0 15 -4 18 -10 14 -23 34 -8 40
30 4 22 6 43 5 46 -1 4 4 11 12 15 10 7 10 9 1 9 -7 0 -13 5 -13 10 0 6 5 9
12 8 21 -5 19 27 -3 40 -20 13 -21 12 -15 -4 4 -10 1 -21 -6 -26 -24 -15 -29
-8 -14 21 9 16 12 32 8 37 -4 5 2 1 14 -9 17 -14 43 -23 44 -14 12 73 11 79
-2 72 -8 -4 -7 -2 2 7 8 7 16 18 17 24 1 6 4 23 7 38 2 14 8 30 11 36 12 20
15 129 3 136 -7 5 -8 2 -3 -6 5 -9 4 -11 -3 -6 -9 5 -8 12 1 27 10 16 9 21 -3
29 -8 5 -12 10 -7 10 4 0 1 10 -8 23 -8 13 -12 27 -8 30 3 4 2 7 -4 7 -18 0
-23 -13 -10 -29 11 -14 10 -15 -7 -1 -18 14 -19 13 -14 -6 6 -22 -5 -26 -30
-10 -16 10 2 36 25 36 8 0 11 5 8 10 -4 6 -1 9 6 8 6 -2 14 3 17 11 3 9 0 11
-8 6 -9 -5 -11 -4 -6 3 7 11 -46 128 -66 147 -8 7 -9 6 -4 -2 3 -6 3 -14 -2
-17 -4 -2 -9 7 -10 22 -2 27 -20 45 -36 35 -5 -3 -6 -1 -2 6 4 6 13 8 19 5 8
-5 8 -3 0 7 -7 7 -13 23 -13 36 0 15 -6 23 -17 23 -15 0 -16 2 -3 10 13 8 12
10 -3 10 -10 0 -16 4 -13 9 3 5 -1 12 -10 15 -10 4 -13 2 -8 -7 4 -6 -6 -1
-22 13 -21 19 -25 20 -14 5 7 -11 -5 0 -29 25 -23 25 -47 44 -52 43 -5 -2 -9
2 -9 7 0 6 -5 10 -11 10 -5 0 -7 -4 -4 -10 3 -5 2 -10 -4 -10 -5 0 -11 5 -13
10 -2 6 -36 12 -76 14 -46 3 -70 0 -66 -6 4 -6 -2 -5 -14 1 -27 14 -35 14 -26
-1 5 -9 2 -9 -9 1 -14 11 -17 11 -17 0 0 -9 -3 -10 -8 -4 -11 15 -48 18 -72 5
-11 -6 -20 -7 -20 -1 0 5 -11 12 -25 15 -14 4 -25 11 -25 17 0 8 5 7 15 -1 31
-25 24 -3 -11 38 -25 29 -42 41 -59 40 -28 -3 -22 -19 22 -60 36 -34 55 -58
48 -59 -3 -1 -11 -2 -17 -3 -7 -1 -40 25 -73 58 -33 34 -95 94 -138 134 -42
41 -77 81 -76 90 0 11 4 9 10 -7 9 -23 10 -23 29 -6 21 19 28 41 10 30 -5 -3
-10 -2 -10 2 0 5 -16 16 -35 25 -33 15 -35 15 -23 -1 7 -9 -1 -4 -17 10 -50
44 -75 56 -212 104 -127 44 -137 46 -236 44 -58 -1 -110 -5 -117 -9z m-250
-84 c0 -3 -4 -8 -10 -11 -5 -3 -10 -1 -10 4 0 6 5 11 10 11 6 0 10 -2 10 -4z
m-60 -46 c0 -5 -2 -10 -4 -10 -3 0 -8 5 -11 10 -3 6 -1 10 4 10 6 0 11 -4 11
-10z m-476 -15 c-7 -16 -24 -21 -24 -6 0 8 7 13 27 20 1 1 0 -6 -3 -14z m36
-3 c0 -5 -7 -9 -15 -9 -8 0 -12 4 -9 9 3 4 9 8 15 8 5 0 9 -4 9 -8z m40 4 c0
-2 -7 -7 -16 -10 -8 -3 -12 -2 -9 4 6 10 25 14 25 6z m333 -32 c-14 -14 -28
-23 -31 -19 -3 3 4 12 16 21 12 8 20 20 17 25 -3 5 0 6 8 3 12 -4 9 -11 -10
-30z m-318 6 c3 -6 -1 -7 -9 -4 -18 7 -21 14 -7 14 6 0 13 -4 16 -10z m1322
-16 c2 -13 1 -15 -4 -4 -3 8 -11 19 -17 23 -7 6 -6 7 4 4 8 -2 16 -12 17 -23z
m-983 -19 c-7 -19 -14 -44 -14 -55 0 -24 -15 -27 -24 -4 -5 14 -9 14 -24 3
-15 -12 -16 -12 -5 2 7 9 10 18 8 21 -5 5 60 68 70 68 2 0 -3 -16 -11 -35z
m-234 -40 c-11 -13 -14 -13 -28 1 -12 12 -13 18 -3 24 9 5 10 10 2 14 -6 4
-11 11 -11 16 0 5 12 -2 26 -15 22 -20 24 -27 14 -40z m-485 36 c3 -5 2 -12
-3 -15 -5 -3 -9 1 -9 9 0 17 3 19 12 6z m660 -1 c3 -5 1 -10 -4 -10 -6 0 -11
5 -11 10 0 6 2 10 4 10 3 0 8 -4 11 -10z m-625 -15 c-7 -9 -15 -13 -19 -10 -3
3 1 10 9 15 21 14 24 12 10 -5z m489 -18 c-2 -1 -15 -11 -29 -22 l-25 -20 19
23 c11 12 24 22 29 22 6 0 8 -1 6 -3z m41 -18 c0 -6 -4 -7 -10 -4 -5 3 -10 11
-10 16 0 6 5 7 10 4 6 -3 10 -11 10 -16z m-694 -11 c4 -6 3 -8 -3 -5 -6 4 -18
-5 -27 -18 -9 -14 -21 -23 -26 -20 -4 3 -11 0 -13 -5 -4 -7 -5 -6 -4 0 2 7 5
10 9 8 3 -2 16 9 28 25 24 31 26 31 36 15z m79 -8 c-10 -11 -21 -18 -23 -15
-3 3 3 12 14 20 27 20 30 18 9 -5z m591 2 c1 -7 0 -8 -3 -2 -2 5 -9 10 -14 10
-6 0 -8 -4 -5 -8 3 -5 -1 -9 -9 -9 -11 0 -12 4 -3 14 13 16 31 13 34 -5z m47
3 c-3 -9 -8 -14 -10 -11 -3 3 -2 9 2 15 9 16 15 13 8 -4z m-676 -25 c1 -11 -2
-20 -7 -20 -6 0 -7 17 -1 38 3 8 7 -1 8 -18z m-35 -9 c-11 -6 -10 -10 4 -15 9
-3 14 -9 11 -13 -9 -8 -38 17 -31 28 3 5 11 9 17 9 8 0 8 -3 -1 -9z m-102 -12
c12 -8 10 -9 -7 -4 -15 4 -25 0 -32 -12 -6 -10 -11 -13 -11 -7 0 11 20 34 30
34 3 0 12 -5 20 -11z m76 -13 c18 -19 18 -32 0 -17 -10 8 -16 9 -21 1 -3 -5
-1 -10 5 -10 7 0 7 -5 -2 -13 -13 -15 -38 -18 -38 -6 0 5 -12 16 -27 24 -16 9
-21 14 -13 12 9 -3 29 1 45 8 17 7 31 14 33 14 2 1 10 -5 18 -13z m-78 -39
c15 4 15 3 2 -6 -12 -9 -13 -11 -1 -11 8 0 11 -3 8 -6 -4 -4 -13 -2 -20 4 -8
7 -17 9 -21 5 -4 -4 -4 1 0 12 4 10 9 14 11 8 3 -7 12 -9 21 -6z m2157 3 c-3
-5 -11 -10 -16 -10 -6 0 -7 5 -4 10 3 6 11 10 16 10 6 0 7 -4 4 -10z m31 -28
c1 -7 0 -8 -3 -2 -2 5 -9 10 -14 10 -6 0 -7 -5 -3 -12 4 -7 3 -8 -5 -4 -14 9
-4 29 12 23 6 -2 12 -9 13 -15z m-2216 -6 c0 4 5 3 12 -4 9 -9 9 -15 -1 -24
-10 -11 -11 -9 -5 6 5 13 4 17 -3 13 -6 -4 -17 1 -24 11 -13 15 -12 16 4 3 9
-7 17 -10 17 -5z m-80 0 c0 -3 -4 -8 -10 -11 -5 -3 -10 -1 -10 4 0 6 5 11 10
11 6 0 10 -2 10 -4z m48 -15 c11 -7 11 -9 -2 -14 -9 -4 -14 -12 -12 -19 1 -7
1 -10 -1 -6 -2 4 -11 4 -19 1 -7 -3 -11 -9 -8 -14 3 -5 0 -9 -5 -9 -16 0 -13
20 4 26 8 4 12 10 9 15 -3 5 -2 9 3 8 20 -3 27 2 13 11 -8 5 -10 10 -5 10 6 0
16 -4 23 -9z m-73 -31 c3 -5 1 -10 -4 -10 -6 0 -11 5 -11 10 0 6 2 10 4 10 3
0 8 -4 11 -10z m2435 -14 c0 -2 -7 -7 -16 -10 -8 -3 -12 -2 -9 4 6 10 25 14
25 6z m191 -19 c-10 -9 -11 -8 -5 6 3 10 9 15 12 12 3 -3 0 -11 -7 -18z
m-2638 -6 c21 10 21 9 3 -5 -20 -16 -37 -13 -35 7 0 9 2 9 6 0 3 -10 10 -10
26 -2z m62 -1 c-3 -5 -12 -10 -18 -10 -7 0 -6 4 3 10 19 12 23 12 15 0z m-30
-20 c3 -5 1 -10 -4 -10 -6 0 -11 5 -11 10 0 6 2 10 4 10 3 0 8 -4 11 -10z
m-19 -22 c5 -8 1 -9 -11 -5 -14 6 -16 3 -12 -13 5 -18 -2 -24 -20 -17 -5 1 -7
8 -5 15 3 11 -2 11 -20 2 l-23 -11 23 18 c27 22 59 27 68 11z m2781 -53 c0 -8
-4 -12 -9 -9 -5 3 -6 10 -3 15 9 13 12 11 12 -6z m-2901 -23 c-17 -16 -18 -16
-5 5 7 12 15 20 18 17 3 -2 -3 -12 -13 -22z m52 -16 c-7 -8 -15 -12 -17 -11
-5 6 10 25 20 25 5 0 4 -6 -3 -14z m2892 -6 c0 -5 -2 -10 -4 -10 -3 0 -8 5
-11 10 -3 6 -1 10 4 10 6 0 11 -4 11 -10z m24 -19 c3 -5 -1 -14 -8 -20 -12
-10 -14 -9 -11 6 2 10 4 19 4 21 2 5 10 2 15 -7z m-2940 -16 c-4 -8 -11 -12
-16 -9 -6 4 -5 10 3 15 19 12 19 11 13 -6z m2953 -37 c0 -21 -1 -24 -4 -10 -3
14 -9 20 -16 15 -7 -4 -6 1 2 10 17 22 17 22 18 -15z m-2009 -36 c2 -18 -5
-57 -16 -85 -27 -70 -42 -139 -42 -187 0 -22 -4 -40 -9 -40 -15 0 -22 -33 -9
-42 9 -5 10 -8 1 -8 -21 0 -25 20 -9 45 21 32 20 41 -1 24 -17 -13 -17 -13 0
7 9 11 17 27 17 34 0 9 -5 7 -16 -6 -15 -17 -15 -17 0 8 20 34 21 60 1 34 -13
-17 -15 -18 -15 -3 0 15 11 21 32 18 4 0 5 12 3 27 -1 15 0 32 3 37 13 21 12
49 -3 65 -17 18 -10 54 8 43 6 -4 8 0 5 8 -3 8 -1 24 3 37 13 35 43 25 47 -16z
m2049 20 c8 -5 9 -13 3 -22 -10 -16 -23 -8 -26 15 -2 17 5 19 23 7z m-3036
-39 c13 -17 13 -17 -6 -3 -11 8 -22 16 -24 17 -2 2 0 3 6 3 6 0 17 -8 24 -17z
m3007 -7 c6 -13 20 -27 31 -31 12 -3 21 -11 21 -16 0 -14 -46 19 -65 47 -8 13
-12 24 -7 24 5 0 14 -11 20 -24z m32 -6 c0 -5 -2 -10 -4 -10 -3 0 -8 5 -11 10
-3 6 -1 10 4 10 6 0 11 -4 11 -10z m-2147 -25 c-3 -9 -8 -14 -10 -11 -3 3 -2
9 2 15 9 16 15 13 8 -4z m2147 -34 c0 -3 -5 -13 -11 -21 -9 -13 -10 -13 -6 1
3 9 0 22 -6 28 -9 9 -8 11 6 6 9 -4 17 -10 17 -14z m-2164 -15 c0 -13 -4 -22
-8 -20 -4 2 -9 0 -13 -6 -3 -5 -10 -10 -16 -10 -5 0 0 9 11 20 12 12 18 25 15
30 -4 6 -2 10 3 10 6 0 9 -11 8 -24z m-32 -1 c-4 -8 -11 -12 -16 -9 -6 4 -5
10 3 15 19 12 19 11 13 -6z m2216 -6 c-7 -11 -14 -18 -17 -15 -3 3 0 12 7 21
18 21 23 19 10 -6z m45 1 c10 -11 14 -20 9 -20 -5 0 -15 9 -22 20 -7 11 -11
20 -9 20 2 0 12 -9 22 -20z m-2205 0 c0 -5 -2 -10 -4 -10 -3 0 -8 5 -11 10 -3
6 -1 10 4 10 6 0 11 -4 11 -10z m-82 -25 c-3 -3 -9 2 -12 12 -6 14 -5 15 5 6
7 -7 10 -15 7 -18z m1341 14 c48 -17 67 -69 25 -69 -9 0 -13 -5 -9 -12 3 -7 0
-4 -7 6 -7 11 -21 28 -30 38 -10 10 -18 25 -18 33 0 18 -1 18 39 4z m932 -19
c5 0 9 -5 9 -10 0 -6 -7 -6 -19 2 -12 7 -17 18 -13 27 6 14 7 14 10 -1 2 -10
8 -18 13 -18z m-2293 -15 c0 -13 -4 -22 -9 -20 -9 6 -8 45 2 45 4 0 7 -11 7
-25z m1313 4 c8 -15 8 -19 0 -15 -7 5 -11 -4 -11 -24 0 -24 4 -31 14 -27 10 4
13 1 9 -9 -6 -17 -24 -18 -47 -1 -25 18 -19 73 8 69 14 -3 17 1 13 12 -9 23 0
20 14 -5z m-1346 -9 c-4 -11 -2 -20 4 -20 6 0 11 -5 11 -10 0 -6 -7 -6 -19 2
-15 9 -17 15 -8 30 15 24 20 23 12 -2z m128 -1 c17 -19 17 -20 0 -17 -13 2
-18 -3 -17 -19 1 -13 -2 -20 -6 -18 -10 6 -8 25 4 43 16 26 -2 23 -23 -4 -11
-15 -21 -22 -21 -15 0 6 -13 -1 -30 -15 -16 -15 -27 -30 -25 -34 3 -4 -4 -15
-15 -25 -11 -10 -20 -15 -20 -10 0 4 8 14 18 21 16 13 16 13 0 14 -10 0 -18 4
-18 10 0 5 8 6 18 3 15 -6 16 -5 2 13 -14 17 -13 18 1 7 13 -11 20 -9 39 12
13 13 27 22 31 19 5 -2 14 4 21 16 16 25 19 25 41 -1z m2185 -18 c-2 -8 -9
-16 -16 -17 -7 -1 -8 0 -2 3 5 2 10 9 10 14 0 6 -5 7 -12 3 -7 -4 -8 -3 -4 4
4 7 2 12 -3 12 -6 0 -11 5 -11 10 0 6 8 5 20 -2 11 -7 19 -19 18 -27z m-2345
14 c-3 -9 -8 -14 -10 -11 -3 3 -2 9 2 15 9 16 15 13 8 -4z m104 9 c-3 -3 -12
-4 -19 -1 -8 3 -5 6 6 6 11 1 17 -2 13 -5z m-861 -50 c-3 -7 3 -18 12 -23 15
-9 15 -10 -3 -8 -16 1 -21 8 -20 28 0 15 4 25 8 22 5 -3 6 -11 3 -19z m734
-32 c0 -1 -8 2 -19 7 -10 6 -21 7 -25 3 -4 -3 -4 1 -1 10 6 15 8 15 26 0 10
-9 19 -18 19 -20z m104 10 c3 -5 -1 -9 -9 -9 -8 0 -12 4 -9 9 3 4 7 8 9 8 2 0
6 -4 9 -8z m2247 -9 c13 -15 12 -15 -8 -4 -24 12 -29 21 -14 21 5 0 15 -7 22
-17z m79 6 c0 -5 5 -7 12 -3 7 4 8 3 4 -5 -6 -9 -11 -9 -22 0 -17 14 -18 19
-4 19 6 0 10 -5 10 -11z m-20 -20 c0 -6 -4 -7 -10 -4 -5 3 -10 11 -10 16 0 6
5 7 10 4 6 -3 10 -11 10 -16z m-2423 -5 c2 -6 -4 -17 -13 -25 -16 -13 -16 -12
-5 9 14 26 -3 31 -19 5 -11 -17 -11 -17 -6 0 6 20 -4 22 -24 5 -12 -11 -12
-10 -1 4 13 18 62 20 68 2z m-687 -17 c0 -2 -8 -3 -18 -3 -10 0 -19 6 -19 13
0 8 6 9 19 2 10 -5 18 -11 18 -12z m719 -27 c0 -10 -3 -8 -9 5 -7 19 -8 19
-15 1 -5 -10 -4 -21 1 -25 5 -3 10 -15 12 -26 2 -15 -2 -12 -14 9 -13 24 -14
32 -3 52 9 18 15 21 21 12 4 -7 7 -20 7 -28z m2371 33 c0 -5 -5 -15 -10 -23
-7 -12 -9 -10 -7 8 1 19 17 33 17 15z m11 -30 c-12 -20 -14 -14 -5 12 4 9 9
14 11 11 3 -2 0 -13 -6 -23z m46 0 c0 -7 -3 -11 -5 -8 -3 3 -11 0 -19 -6 -9
-9 -13 -8 -13 0 0 6 5 11 11 11 5 0 8 4 5 8 -3 5 1 9 8 9 7 0 13 -6 13 -14z
m-3157 -3 c0 -5 -5 -10 -11 -10 -5 0 -7 5 -4 10 3 6 8 10 11 10 2 0 4 -4 4
-10z m601 -8 c-7 -2 -18 1 -23 6 -8 8 -4 9 13 5 13 -4 18 -8 10 -11z m83 -9
c3 -8 4 -19 0 -24 -3 -5 0 -9 5 -9 6 0 11 -7 11 -15 0 -8 -5 -15 -11 -15 -5 0
-8 4 -4 9 11 19 -13 20 -30 1 -10 -11 -23 -20 -29 -20 -6 0 -4 5 4 10 8 5 11
10 6 10 -5 0 -3 7 4 15 7 8 15 13 19 10 4 -2 7 6 6 18 -2 12 -8 21 -14 19 -7
-1 -10 2 -6 7 8 13 32 3 39 -16z m2466 -41 c-6 -2 -23 6 -39 17 -16 12 -34 21
-40 21 -6 0 -11 4 -11 10 0 5 22 -2 49 -18 28 -15 46 -28 41 -30z m-2508 34
c7 4 8 2 4 -5 -9 -13 -26 -5 -25 12 0 9 2 8 6 -1 2 -6 10 -9 15 -6z m-62 -10
c0 -7 7 -19 15 -26 8 -7 12 -16 9 -22 -3 -5 0 -16 8 -25 12 -15 11 -15 -10 -2
-20 12 -24 12 -32 -1 -6 -9 -10 -10 -10 -3 0 7 9 17 21 23 18 10 19 14 6 28
-23 27 -29 42 -18 42 6 0 11 -6 11 -14z m25 4 c-3 -5 -1 -10 4 -10 6 0 11 -5
11 -11 0 -8 -5 -8 -15 1 -13 11 -12 30 1 30 3 0 2 -4 -1 -10z m145 6 c0 -3 -4
-8 -10 -11 -5 -3 -10 -1 -10 4 0 6 5 11 10 11 6 0 10 -2 10 -4z m2420 -2 c0
-8 -19 -13 -24 -6 -3 5 1 9 9 9 8 0 15 -2 15 -3z m-80 -26 c0 -5 -9 -4 -20 2
-11 6 -20 12 -20 14 0 2 9 2 20 -1 11 -3 20 -9 20 -15z m-3040 -3 c7 -8 9 -15
6 -15 -4 0 -4 -5 0 -11 5 -8 9 -8 14 1 5 8 9 8 13 -3 3 -8 0 -14 -6 -13 -21 3
-37 17 -32 27 4 5 -4 13 -17 18 -15 7 -17 10 -7 10 9 1 22 -6 29 -14z m3065
-5 c3 -5 1 -10 -4 -10 -6 0 -11 5 -11 10 0 6 2 10 4 10 3 0 8 -4 11 -10z
m-2540 -10 c3 -5 1 -10 -4 -10 -6 0 -11 5 -11 10 0 6 2 10 4 10 3 0 8 -4 11
-10z m2509 -5 c11 -8 18 -17 15 -19 -2 -3 -15 4 -29 14 -14 11 -20 20 -15 19
6 0 19 -6 29 -14z m51 -5 c-3 -5 -12 -10 -18 -10 -7 0 -6 4 3 10 19 12 23 12
15 0z m-3111 -8 c3 -5 -1 -9 -9 -9 -8 0 -12 4 -9 9 3 4 7 8 9 8 2 0 6 -4 9 -8z
m458 -38 c-8 -15 -10 -15 -15 0 -4 10 -3 15 3 11 6 -3 10 -1 10 4 0 6 -5 11
-11 11 -5 0 -7 5 -3 11 11 18 27 -18 16 -37z m33 28 c-3 -3 -11 0 -18 7 -9 10
-8 11 6 5 10 -3 15 -9 12 -12z m2638 3 c-3 -9 -8 -14 -10 -11 -3 3 -2 9 2 15
9 16 15 13 8 -4z m-82 -10 c5 4 6 -1 2 -11 -5 -14 -3 -15 15 -5 12 7 22 8 22
4 0 -4 5 -1 11 7 9 13 10 13 6 -1 -3 -9 0 -23 6 -30 7 -7 3 -6 -9 4 -16 13
-23 14 -33 4 -10 -9 -15 -8 -27 7 -8 11 -14 25 -13 30 0 6 3 5 6 -2 2 -6 9
-10 14 -7z m-2931 -37 c0 -4 -9 1 -20 12 -11 11 -20 23 -20 27 0 3 9 -2 20
-12 11 -10 20 -22 20 -27z m310 32 c0 -5 -5 -10 -11 -10 -5 0 -7 5 -4 10 3 6
8 10 11 10 2 0 4 -4 4 -10z m-270 -14 c0 -2 -7 -7 -16 -10 -8 -3 -12 -2 -9 4
6 10 25 14 25 6z m28 -36 c-8 -12 -15 -15 -19 -9 -3 6 -9 10 -13 10 -11 -2 -8
13 3 17 6 2 11 -1 11 -8 0 -6 5 -8 10 -5 6 4 7 11 4 17 -4 7 -2 8 4 4 9 -5 8
-12 0 -26z m227 13 c-2 -10 -4 -29 -4 -43 -1 -18 -4 -21 -10 -12 -4 8 -11 13
-15 13 -23 -3 -26 0 -16 22 11 21 11 22 -5 2 -15 -18 -15 -21 3 -35 18 -15 18
-16 -1 -35 -20 -20 -20 -20 -8 3 10 19 9 23 -9 30 l-21 8 22 28 c15 19 25 24
32 17 16 -16 27 -13 21 4 -4 8 -2 15 4 15 6 0 9 -8 7 -17z m23 -26 c-5 -10
-12 -16 -16 -13 -3 4 -1 11 5 17 6 6 9 19 6 28 -4 13 -3 14 5 2 7 -10 7 -21 0
-34z m-113 -3 c-14 -28 -14 -29 8 -36 16 -4 18 -6 4 -7 -18 -1 -87 25 -87 32
0 3 8 4 17 3 10 0 18 5 18 13 0 8 7 16 15 18 13 4 13 3 0 -6 -8 -6 -11 -11 -6
-11 5 0 3 -7 -4 -15 -8 -9 -9 -15 -2 -15 6 0 19 13 28 30 23 37 29 33 9 -6z
m170 26 c3 -6 -1 -7 -9 -4 -18 7 -21 14 -7 14 6 0 13 -4 16 -10z m2536 -13
c-10 -9 -11 -8 -5 6 3 10 9 15 12 12 3 -3 0 -11 -7 -18z m69 2 c0 -6 -4 -7
-10 -4 -5 3 -10 11 -10 16 0 6 5 7 10 4 6 -3 10 -11 10 -16z m-2883 0 c-15 -9
-16 -13 -5 -27 12 -15 11 -16 -5 -3 -13 10 -15 17 -6 27 6 8 17 14 23 14 6 0
3 -5 -7 -11z m323 -8 c0 -5 -7 -11 -14 -14 -10 -4 -13 -1 -9 9 6 15 23 19 23
5z m2548 -11 c18 -17 20 -25 12 -40 -6 -11 -15 -20 -21 -20 -6 0 -3 7 5 16 18
17 14 29 -13 44 -16 8 -18 5 -18 -16 0 -19 2 -22 13 -13 10 8 14 8 14 0 0 -6
-4 -11 -8 -11 -5 0 -13 -10 -19 -22 -8 -18 -9 -13 -8 27 1 28 3 51 4 53 4 7
20 0 39 -18z m-2848 -5 c0 -8 -2 -15 -4 -15 -2 0 -6 7 -10 15 -3 8 -1 15 4 15
6 0 10 -7 10 -15z m240 -20 c0 -12 -19 -12 -23 0 -4 9 -1 12 9 8 7 -3 14 -7
14 -8z m-153 -27 c7 -1 10 -5 7 -10 -3 -5 -10 -6 -15 -3 -5 4 -19 8 -30 10
-12 3 -24 7 -28 10 -3 4 8 3 24 0 17 -4 35 -7 42 -7z m2804 -26 c-7 -2 -18 1
-23 6 -8 8 -4 9 13 5 13 -4 18 -8 10 -11z m-64 -14 c-3 -8 -6 -5 -6 6 -1 11 2
17 5 13 3 -3 4 -12 1 -19z m-16 -15 c13 -16 12 -17 -3 -4 -17 13 -22 21 -14
21 2 0 10 -8 17 -17z m10 -76 c-5 -5 -7 -17 -4 -26 3 -10 0 -9 -8 3 -9 14 -9
21 -1 24 6 2 8 10 5 18 -3 7 -10 11 -16 7 -6 -4 -7 -1 -2 7 6 10 11 9 22 -5 8
-12 9 -23 4 -28z m-31 -21 c0 -3 -4 -8 -10 -11 -5 -3 -10 -1 -10 4 0 6 5 11
10 11 6 0 10 -2 10 -4z m10 -25 c0 -5 -7 -12 -16 -15 -14 -5 -15 -4 -4 9 14
17 20 19 20 6z m10 -57 c0 -4 -6 -4 -14 -1 -7 3 -20 0 -27 -6 -11 -10 -11 -9
-1 4 6 9 8 19 4 24 -4 4 3 2 16 -4 12 -6 22 -14 22 -17z m-20 -18 c0 -2 -8
-10 -17 -17 -16 -13 -17 -12 -4 4 13 16 21 21 21 13z m-677 -93 c-7 -2 -13
-12 -13 -20 0 -9 -6 -13 -15 -10 -8 4 -17 2 -20 -3 -4 -6 -1 -10 4 -10 16 0
13 -17 -3 -23 -11 -4 -13 -1 -10 11 5 15 4 15 -6 -1 -6 -9 -8 -22 -4 -29 4 -6
3 -8 -3 -5 -6 4 -21 -5 -33 -18 -13 -14 -19 -25 -15 -25 5 0 -1 -7 -13 -16
-29 -20 -28 -29 3 -30 18 -1 30 6 42 27 10 16 21 29 25 29 4 0 12 10 19 21 9
17 8 20 -3 13 -7 -4 2 7 20 24 19 17 31 35 28 40 -2 4 4 13 14 20 16 10 21 9
29 -6 8 -13 13 -14 19 -4 6 8 9 2 9 -19 0 -19 7 -37 17 -45 10 -6 18 -16 19
-21 1 -4 9 -8 17 -8 8 0 15 -7 15 -15 1 -8 6 -14 13 -13 7 2 11 0 10 -5 -5
-13 28 -52 37 -44 5 4 5 2 2 -5 -4 -6 -17 -9 -29 -5 -14 3 -19 1 -14 -6 4 -6
2 -22 -5 -34 -7 -12 -13 -39 -14 -59 -1 -20 -5 -41 -8 -46 -12 -19 -17 -90 -8
-121 7 -22 6 -30 -1 -26 -6 4 -8 -2 -4 -17 7 -22 6 -23 -8 -6 -9 12 -16 14
-21 8 -9 -16 -38 -14 -30 2 4 6 0 4 -8 -6 -8 -10 -19 -17 -23 -16 -21 4 -25
-2 -13 -18 12 -15 12 -16 -1 -8 -10 5 -8 1 4 -13 18 -21 18 -22 0 -28 -11 -3
-26 -9 -34 -13 -20 -10 -40 -3 -40 15 0 9 -4 13 -8 10 -12 -7 -61 47 -105 116
-39 59 -83 102 -117 113 -19 6 -23 15 -17 33 1 4 6 6 11 4 4 -1 16 3 25 10 14
12 14 11 3 -4 -12 -14 -10 -19 15 -35 15 -9 31 -22 35 -28 4 -5 8 -7 8 -3 0 3
14 -7 32 -24 l32 -30 19 24 c19 23 19 23 -7 32 -14 6 -26 14 -26 19 0 4 -4 6
-9 3 -5 -3 -7 -16 -5 -29 4 -21 4 -21 -5 -1 -9 21 -38 39 -54 35 -5 -1 -6 3
-2 9 4 6 15 4 31 -6 13 -9 24 -13 24 -9 0 10 -43 44 -57 45 -7 0 -13 3 -13 6
0 9 30 36 30 27 1 -4 15 8 32 27 17 19 27 28 23 20 -4 -8 2 -5 14 7 38 40 19
47 -23 8 -17 -16 -26 -19 -26 -10 0 7 9 17 20 20 11 4 17 11 14 17 -5 7 -15 3
-29 -13 -12 -13 -28 -25 -36 -27 -8 -2 -16 -8 -17 -13 -2 -5 -8 -7 -13 -3 -5
3 -9 -3 -10 -13 0 -10 -3 -13 -6 -5 -6 14 -43 16 -43 2 0 -5 -4 -10 -10 -10
-21 0 -8 17 28 38 21 11 47 31 58 43 10 11 35 29 54 39 19 10 59 44 88 74 30
31 57 54 62 51 4 -3 10 2 14 10 3 8 11 15 18 14 10 0 10 -2 1 -6z m151 -12
c-2 -2 1 -10 7 -18 9 -9 8 -13 0 -13 -6 0 -11 4 -11 9 0 17 -40 19 -49 3 -8
-15 -10 -14 -8 5 1 17 7 21 33 20 18 -1 30 -4 28 -6z m463 -36 c-23 -22 -33
-18 -12 5 10 11 20 18 23 16 2 -3 -3 -12 -11 -21z m-440 -9 c15 6 15 4 -2 -9
-17 -13 -21 -13 -28 -1 -5 8 -12 12 -17 9 -4 -3 -11 2 -14 11 -6 15 -4 15 18
0 14 -9 33 -13 43 -10z m37 -11 c-4 -8 -11 -15 -16 -15 -6 0 -5 6 2 15 7 8 14
15 16 15 2 0 1 -7 -2 -15z m378 -13 c-7 -2 -12 -8 -12 -13 0 -6 4 -7 10 -4 5
3 19 8 31 10 16 3 18 1 10 -9 -6 -7 -10 -15 -8 -18 1 -2 -2 -1 -7 4 -15 13
-26 9 -26 -8 0 -8 5 -12 11 -9 6 4 5 -2 -3 -14 -10 -17 -14 -18 -21 -6 -4 9
-13 13 -19 9 -6 -4 -5 -10 3 -15 12 -8 11 -12 -3 -23 -10 -7 -14 -17 -10 -22
6 -7 -11 4 -38 24 -3 2 2 3 10 2 26 -4 41 0 36 8 -3 5 -20 7 -38 6 -18 -2 -25
-1 -15 2 9 3 15 9 12 14 -3 5 -13 6 -23 3 -14 -5 -15 -3 -5 7 10 11 16 10 33
-5 24 -22 27 -9 3 17 -9 10 -11 18 -6 18 6 0 13 -7 17 -15 5 -15 28 -22 24 -7
-1 4 3 17 10 28 6 12 8 24 4 28 -3 4 2 4 13 0 11 -5 14 -9 7 -12z m-362 -7 c0
-8 -4 -15 -10 -15 -5 0 -7 7 -4 15 4 8 8 15 10 15 2 0 4 -7 4 -15z m-24 -33
c-6 -5 -36 23 -36 34 0 4 9 -1 20 -11 11 -10 18 -20 16 -23z m48 13 c-4 -8
-11 -15 -16 -15 -6 0 -5 6 2 15 7 8 14 15 16 15 2 0 1 -7 -2 -15z m-324 -5 c0
-5 -2 -10 -4 -10 -3 0 -8 5 -11 10 -3 6 -1 10 4 10 6 0 11 -4 11 -10z m377
-25 c0 -8 -4 -12 -8 -9 -4 2 -9 -2 -12 -8 -2 -7 -4 -1 -3 13 1 27 23 30 23 4z
m-397 5 c0 -5 -2 -10 -4 -10 -3 0 -8 5 -11 10 -3 6 -1 10 4 10 6 0 11 -4 11
-10z m357 -6 c-3 -3 -12 -4 -19 -1 -8 3 -5 6 6 6 11 1 17 -2 13 -5z m134 -21
c12 -16 12 -17 -2 -6 -9 7 -20 9 -24 5 -5 -4 -5 -1 -1 6 9 16 11 15 27 -5z
m-1486 -11 c6 -4 11 -14 13 -22 2 -12 -1 -11 -11 2 -8 10 -17 15 -20 11 -4 -3
-7 -1 -7 5 0 14 10 15 25 4z m890 -71 c3 -5 0 -13 -6 -17 -8 -5 -9 -3 -4 6 6
10 4 12 -8 7 -10 -3 -17 -2 -17 3 0 13 27 13 35 1z m-40 -21 c3 -5 1 -10 -4
-10 -6 0 -11 5 -11 10 0 6 2 10 4 10 3 0 8 -4 11 -10z m-1225 -31 c0 -5 -4 -8
-9 -5 -5 3 -8 -5 -7 -18 1 -20 4 -22 15 -13 12 10 12 9 3 -10 -14 -26 -15 -36
-3 -28 5 3 12 1 15 -4 6 -10 -47 -7 -63 4 -13 7 21 85 37 85 6 0 12 -5 12 -11z
m1230 -23 c0 -3 -4 -8 -10 -11 -5 -3 -10 -1 -10 4 0 6 5 11 10 11 6 0 10 -2
10 -4z m102 -63 c-6 -2 -10 -9 -6 -14 3 -5 0 -9 -5 -9 -12 0 -14 13 -4 23 3 4
11 7 17 6 6 0 5 -3 -2 -6z m232 -167 c-6 -17 -8 -17 -16 -2 -5 9 -13 14 -19
11 -5 -4 -9 -1 -9 4 0 15 13 14 29 -1 12 -11 13 -9 7 7 -5 14 -4 17 4 9 6 -6
8 -19 4 -28z m-1423 -368 c5 -29 1 -39 -25 -63 -17 -15 -26 -20 -23 -11 4 10
-2 25 -13 36 -12 12 -15 20 -7 20 7 0 8 3 2 8 -12 8 -13 32 -2 49 6 10 15 7
38 -9 16 -12 30 -25 30 -30z m-1 -83 c-10 -12 -10 -18 0 -30 7 -8 9 -15 5 -15
-9 0 -34 31 -35 43 0 5 5 5 10 2 6 -3 10 -1 10 4 0 6 5 11 11 11 8 0 8 -5 -1
-15z m32 -2 c-6 -2 -10 -9 -6 -14 3 -5 0 -9 -5 -9 -12 0 -14 13 -4 23 3 4 11
7 17 6 6 0 5 -3 -2 -6z m-64 -38 c-3 -3 -9 2 -12 12 -6 14 -5 15 5 6 7 -7 10
-15 7 -18z m70 -5 c-7 -11 -17 -20 -22 -20 -5 0 -1 9 9 20 10 11 20 20 22 20
2 0 -2 -9 -9 -20z m-41 -16 c-3 -3 -12 -4 -19 -1 -8 3 -5 6 6 6 11 1 17 -2 13
-5z m58 -4 c-3 -5 0 -20 7 -32 12 -22 13 -26 17 -45 1 -5 5 -2 10 5 7 11 9 10
14 -3 4 -9 3 -13 -3 -10 -6 3 -10 0 -11 -7 0 -10 -2 -10 -6 0 -2 6 -9 12 -14
12 -5 0 -4 -10 2 -22 11 -21 11 -22 -4 -9 -10 8 -17 9 -17 3 0 -6 8 -15 18
-21 15 -9 15 -10 -5 -8 -12 0 -19 5 -17 9 3 4 -2 8 -10 8 -8 0 -24 12 -35 28
-11 15 -31 38 -43 51 -13 14 -16 19 -7 13 17 -13 49 -7 49 9 0 4 6 6 13 3 8
-3 20 2 27 11 14 17 25 21 15 5z m-68 -16 c-3 -3 -12 -4 -19 -1 -8 3 -5 6 6 6
11 1 17 -2 13 -5z m1403 -15 c0 -5 -4 -9 -8 -9 -5 0 -9 7 -9 15 0 8 4 12 9 9
4 -3 8 -9 8 -15z m-35 3 c-3 -3 0 -11 6 -19 9 -9 8 -13 0 -13 -6 0 -11 5 -11
11 0 5 -5 7 -10 4 -8 -5 -7 -12 2 -23 10 -14 10 -15 -1 -5 -7 6 -19 9 -26 7
-7 -3 -16 -1 -20 5 -3 6 1 11 10 11 10 0 13 5 9 12 -4 7 -3 8 4 4 7 -4 12 -3
12 2 0 5 7 9 15 9 8 0 13 -3 10 -5z m-72 -17 c-3 -9 -8 -14 -10 -11 -3 3 -2 9
2 15 9 16 15 13 8 -4z m-1296 -61 c-3 -3 -12 -4 -19 -1 -8 3 -5 6 6 6 11 1 17
-2 13 -5z m121 -8 c-7 -8 -15 -12 -17 -11 -5 6 10 25 20 25 5 0 4 -6 -3 -14z
m1272 -1 c11 -13 10 -14 -4 -9 -9 3 -16 10 -16 15 0 13 6 11 20 -6z m-1250
-10 c-7 -9 -15 -13 -19 -10 -3 3 1 10 9 15 21 14 24 12 10 -5z m-15 -46 c-3
-4 -13 -5 -22 -2 -11 4 -13 8 -5 11 7 2 9 9 5 15 -4 7 1 6 10 -2 9 -7 14 -17
12 -22z m1280 21 c-3 -5 -12 -10 -18 -10 -7 0 -6 4 3 10 19 12 23 12 15 0z
m-1321 -38 c3 -5 -1 -9 -9 -9 -8 0 -12 4 -9 9 3 4 7 8 9 8 2 0 6 -4 9 -8z m33
-28 c-3 -3 -12 -4 -19 -1 -8 3 -5 6 6 6 11 1 17 -2 13 -5z m1583 -130 c0 -8 5
-14 12 -14 6 0 8 -3 4 -7 -4 -5 -14 1 -22 11 -16 23 -19 40 -4 31 6 -3 10 -13
10 -21z m-1700 -84 c0 -5 -2 -10 -4 -10 -3 0 -8 5 -11 10 -3 6 -1 10 4 10 6 0
11 -4 11 -10z m-17 -21 c7 -7 11 -30 9 -58 -3 -36 5 -68 31 -135 27 -68 32
-89 21 -93 -7 -3 -19 -3 -26 0 -7 3 -3 6 10 6 22 1 21 2 -10 36 -19 21 -38 33
-46 30 -12 -4 -12 -3 -3 9 9 11 10 20 1 36 -6 11 -8 25 -5 30 3 5 1 11 -3 14
-10 6 -8 40 2 74 5 14 1 24 -11 31 -10 6 -13 11 -7 11 5 0 15 -5 22 -12 7 -7
12 -8 12 -2 0 6 -5 15 -12 22 -15 15 -1 16 15 1z m912 -29 c-3 -6 4 -10 17
-11 13 0 17 -3 10 -6 -18 -7 -44 5 -37 17 3 5 8 10 11 10 3 0 2 -4 -1 -10z
m-30 -20 c-3 -5 -12 -10 -18 -10 -7 0 -6 4 3 10 19 12 23 12 15 0z m800 -9 c3
-5 2 -12 -3 -15 -5 -3 -9 1 -9 9 0 17 3 19 12 6z m-705 -31 c0 -5 -2 -10 -4
-10 -3 0 -8 5 -11 10 -3 6 -1 10 4 10 6 0 11 -4 11 -10z m-126 -16 c3 -8 2
-12 -4 -9 -6 3 -10 10 -10 16 0 14 7 11 14 -7z m-14 -24 c0 -5 -2 -10 -4 -10
-3 0 -8 5 -11 10 -3 6 -1 10 4 10 6 0 11 -4 11 -10z m237 -10 c-1 -21 -10 -18
-13 5 -1 8 2 15 6 15 5 0 8 -9 7 -20z m518 1 c3 -5 2 -12 -3 -15 -5 -3 -9 1
-9 9 0 17 3 19 12 6z m-775 -11 c0 -5 -5 -10 -11 -10 -5 0 -7 5 -4 10 3 6 8
10 11 10 2 0 4 -4 4 -10z m370 6 c0 -3 -7 -12 -16 -20 -13 -14 -13 -16 -1 -16
9 0 18 6 20 13 4 9 6 9 6 0 1 -17 -16 -25 -39 -18 -20 6 -20 7 2 25 24 21 28
23 28 16z m-427 -43 c-4 -11 -3 -14 5 -9 7 4 12 2 12 -3 0 -6 -4 -11 -9 -11
-14 0 -23 18 -16 30 10 16 15 12 8 -7z m671 8 c3 -5 -1 -11 -9 -14 -9 -4 -12
-1 -8 9 6 16 10 17 17 5z m-722 -63 c-7 -7 -12 -8 -12 -2 0 14 12 26 19 19 2
-3 -1 -11 -7 -17z m-682 -3 c7 -9 10 -18 6 -22 -3 -3 -6 -1 -6 6 0 6 -10 16
-22 21 -16 6 -18 9 -7 9 9 1 22 -6 29 -14z m-10 -25 c0 -5 -2 -10 -4 -10 -3 0
-8 5 -11 10 -3 6 -1 10 4 10 6 0 11 -4 11 -10z m559 -14 c-7 -15 -20 -23 -35
-23 -13 0 -21 4 -18 9 3 5 12 7 20 4 7 -3 18 4 24 14 15 28 22 25 9 -4z m48 8
c-3 -3 -12 -4 -19 -1 -8 3 -5 6 6 6 11 1 17 -2 13 -5z m-533 -44 c-6 -6 -10
-2 -11 12 -2 16 1 18 10 9 7 -7 8 -14 1 -21z m366 9 c-7 -11 -14 -18 -17 -15
-3 3 0 12 7 21 18 21 23 19 10 -6z"/>
<path d="M1050 3260 c0 -5 5 -10 10 -10 6 0 10 5 10 10 0 6 -4 10 -10 10 -5 0
-10 -4 -10 -10z"/>
<path d="M1010 2701 c0 -6 4 -12 8 -15 5 -3 9 1 9 9 0 8 -4 15 -9 15 -4 0 -8
-4 -8 -9z"/>
<path d="M2620 1700 c0 -5 5 -10 11 -10 5 0 7 5 4 10 -3 6 -8 10 -11 10 -2 0
-4 -4 -4 -10z"/>
<path d="M2352 1463 c-7 -14 -3 -23 18 -40 25 -20 29 -21 40 -7 11 12 11 17 0
27 -7 7 -10 7 -7 2 3 -6 1 -17 -5 -25 -8 -13 -9 -13 -5 0 6 19 -9 60 -22 60
-6 0 -14 -8 -19 -17z m21 -13 c3 -11 1 -18 -4 -14 -5 3 -9 12 -9 20 0 20 7 17
13 -6z"/>
<path d="M2421 1416 c-12 -15 -5 -46 11 -46 5 0 6 10 3 23 -5 17 -4 19 4 7 6
-8 11 -23 11 -32 0 -20 15 -24 25 -8 4 6 11 8 16 5 18 -12 8 1 -25 33 -28 26
-36 29 -45 18z"/>
<path d="M2425 1280 c4 -6 11 -8 16 -5 14 9 11 15 -7 15 -8 0 -12 -5 -9 -10z"/>
<path d="M3026 1761 c-3 -5 2 -15 12 -22 15 -12 16 -12 5 2 -7 9 -10 19 -6 22
3 4 4 7 0 7 -3 0 -8 -4 -11 -9z"/>
<path d="M1065 3310 c-3 -5 1 -10 10 -10 9 0 13 5 10 10 -3 6 -8 10 -10 10 -2
0 -7 -4 -10 -10z"/>
<path d="M2322 3297 c-19 -25 -25 -40 -14 -33 7 4 12 2 12 -5 0 -7 3 -10 6 -6
3 3 17 -6 31 -21 13 -15 22 -21 18 -14 -3 6 -1 12 4 12 6 0 11 -7 11 -17 0 -9
3 -14 6 -10 4 3 16 -8 28 -26 20 -29 29 -33 78 -28 7 1 -10 22 -38 49 -56 54
-91 82 -81 66 7 -12 -21 -29 -31 -19 -3 3 0 5 6 5 19 0 14 34 -7 47 -15 9 -21
9 -29 0z m28 -11 c0 -3 -4 -8 -10 -11 -5 -3 -10 -1 -10 4 0 6 5 11 10 11 6 0
10 -2 10 -4z m58 -61 c-3 -3 -9 2 -12 12 -6 14 -5 15 5 6 7 -7 10 -15 7 -18z
m19 -17 c-3 -8 -6 -5 -6 6 -1 11 2 17 5 13 3 -3 4 -12 1 -19z m23 -28 c0 -5
-4 -10 -10 -10 -5 0 -10 5 -10 10 0 6 5 10 10 10 6 0 10 -4 10 -10z m31 -7 c7
-10 9 -15 5 -11 -5 4 -16 2 -25 -5 -14 -10 -14 -10 -4 4 7 9 10 19 6 22 -3 4
-4 7 -1 7 3 0 12 -8 19 -17z"/>
<path d="M3195 2571 c-3 -5 -2 -12 3 -15 5 -3 9 1 9 9 0 17 -3 19 -12 6z"/>
<path d="M1315 1680 c21 -24 26 -25 19 -6 -3 8 -13 17 -22 21 -13 5 -13 2 3
-15z"/>
<path d="M1249 1646 c-1 -3 -2 -9 -3 -13 -1 -5 -5 -14 -9 -20 -5 -7 -5 -13 -2
-13 3 0 -5 -12 -19 -27 -18 -19 -22 -29 -14 -34 7 -4 16 -5 22 -2 5 3 6 1 3
-5 -4 -5 -15 -8 -25 -6 -11 3 -22 -5 -33 -24 -15 -26 -15 -30 0 -39 12 -8 21
-2 41 31 15 23 27 45 28 49 1 4 8 15 17 23 8 9 13 20 10 25 -4 5 -1 9 4 9 14
0 7 43 -7 48 -7 2 -13 1 -13 -2z m21 -30 c0 -2 -7 -7 -16 -10 -8 -3 -12 -2 -9
4 6 10 25 14 25 6z m-10 -30 c0 -2 -12 -11 -27 -20 l-28 -17 24 20 c23 21 31
25 31 17z m-55 -76 c3 -5 1 -10 -4 -10 -6 0 -11 5 -11 10 0 6 2 10 4 10 3 0 8
-4 11 -10z m-15 -30 c0 -5 -2 -10 -4 -10 -3 0 -8 5 -11 10 -3 6 -1 10 4 10 6
0 11 -4 11 -10z"/>
<path d="M2822 415 c4 -4 3 -17 -2 -30 -10 -25 7 -39 29 -25 19 11 9 54 -14
58 -11 3 -17 1 -13 -3z m28 -30 c0 -8 -4 -15 -8 -15 -5 0 -9 7 -9 15 0 8 4 15
9 15 4 0 8 -7 8 -15z"/>
<path d="M1050 306 c0 -9 5 -16 10 -16 6 0 10 4 10 9 0 6 -4 13 -10 16 -5 3
-10 -1 -10 -9z"/>
<path d="M2590 176 c0 -2 7 -6 15 -10 8 -3 15 -1 15 4 0 6 -7 10 -15 10 -8 0
-15 -2 -15 -4z"/>
<path d="M1515 30 c-3 -5 -1 -10 4 -10 6 0 11 5 11 10 0 6 -2 10 -4 10 -3 0
-8 -4 -11 -10z"/>
</g>
</svg>
